<?xml version="1.0" encoding="utf-8"?>
<!-- Generator: Adobe Illustrator 16.0.0, SVG Export Plug-In . SVG Version: 6.00 Build 0)  -->
<!DOCTYPE svg PUBLIC "-//W3C//DTD SVG 1.1//EN" "http://www.w3.org/Graphics/SVG/1.1/DTD/svg11.dtd">
<svg version="1.1" id="Layer_1" xmlns="http://www.w3.org/2000/svg" xmlns:xlink="http://www.w3.org/1999/xlink" x="0px" y="0px"
	 width="100px" height="100px" viewBox="0 0 100 100" enable-background="new 0 0 100 100" xml:space="preserve">
<g id="Layer_2">
	<g>
		<path fill="#5F87C5" d="M89.905,19.905c1.101-1.223,1.708-2.812,1.708-4.518c0-3.784-3.169-6.961-7.078-6.961
			c-1.717,0-3.178,0.612-4.402,1.588C71.708,3.789,61.319,0,49.962,0C22.477,0,0,22.466,0,50.062C0,77.534,22.477,100,49.962,100
			c27.609,0,50.085-22.466,50.085-49.938C100.048,38.706,96.263,28.326,89.905,19.905z M49.962,97.923
			c-26.385,0-48.008-21.488-48.008-47.984c0-26.373,21.623-47.985,48.008-47.985c10.873,0,20.768,3.665,28.833,9.649
			c-0.863,1.095-1.224,2.441-1.224,3.907c0,3.907,3.056,6.956,6.964,6.956c1.461,0,2.809-0.489,3.909-1.219
			c5.986,8.056,9.649,18.07,9.649,28.814C98.094,76.435,76.471,97.923,49.962,97.923z"/>
		<path fill="#5F87C5" d="M49.962,29.673c11.357,0,20.398,9.033,20.398,20.389c0,11.233-9.041,20.266-20.398,20.266
			c-11.233,0-20.275-9.032-20.275-20.266C29.687,38.706,38.729,29.673,49.962,29.673z"/>
	</g>
</g>
</svg>
